<svg xmlns="http://www.w3.org/2000/svg" xmlns:xlink="http://www.w3.org/1999/xlink" width="500" zoomAndPan="magnify" viewBox="0 0 375 374.999991" height="500" preserveAspectRatio="xMidYMid meet" version="1.0"><defs><clipPath id="6db99b34d6"><path d="M 73.691406 50.125 L 310.691406 50.125 L 310.691406 324.625 L 73.691406 324.625 Z M 73.691406 50.125 " clip-rule="nonzero"/></clipPath><clipPath id="5b18c79bb9"><path d="M 37.5 8.695312 L 347.25 8.695312 L 347.25 366.445312 L 37.5 366.445312 Z M 37.5 8.695312 " clip-rule="nonzero"/></clipPath></defs><g clip-path="url(#6db99b34d6)"><path fill="#ffffff" d="M 310.699219 255.957031 L 310.699219 118.792969 L 192.195312 50.214844 L 73.691406 118.792969 L 73.691406 255.957031 L 192.195312 324.535156 Z M 94.761719 243.765625 L 94.761719 130.984375 L 95.335938 130.652344 L 192.195312 74.597656 L 192.773438 74.929688 L 289.632812 130.984375 L 289.632812 243.765625 L 289.054688 244.097656 L 192.195312 300.152344 L 191.617188 299.816406 Z M 94.761719 243.765625 " fill-opacity="1" fill-rule="nonzero"/></g><g clip-path="url(#5b18c79bb9)"><path fill="#ffffff" d="M 347.257812 276.953125 L 347.257812 98.1875 L 192.378906 8.808594 L 37.5 98.1875 L 37.5 276.953125 L 192.378906 366.332031 Z M 65.035156 261.0625 L 65.035156 114.078125 L 65.789062 113.644531 L 192.378906 40.585938 L 193.132812 41.023438 L 319.726562 114.078125 L 319.726562 261.0625 L 318.972656 261.496094 L 192.378906 334.550781 L 191.625 334.117188 Z M 65.035156 261.0625 " fill-opacity="1" fill-rule="nonzero"/></g></svg>